<svg width="40" height="43" xmlns="http://www.w3.org/2000/svg" xmlns:xlink="http://www.w3.org/1999/xlink" xmlns:svgjs="http://svgjs.com/svgjs" viewBox="0.112 0 39.776 43" fill="#89ceb1"><svg xmlns="http://www.w3.org/2000/svg" width="40" height="43" viewBox="1.507 1.793 37.655 40.707"><path paint-order="stroke fill markers" fill-rule="evenodd" d="M33.762 7.408A18.647 18.647 0 0 0 20.52 1.794C10.175 1.7 1.67 10.09 1.593 20.467L1.507 31.71a1.667 1.667 0 0 0 1.652 1.68h.013c.914 0 1.658-.738 1.665-1.655l.086-11.243c.065-8.497 6.986-15.364 15.452-15.364l.12.001A15.34 15.34 0 0 1 31.39 9.748 15.393 15.393 0 0 1 35.83 20.73l-.086 11.243a1.667 1.667 0 0 0 1.653 1.682h.013c.913 0 1.658-.739 1.665-1.656l.085-11.244a18.71 18.71 0 0 0-5.4-13.347zm-7.376 13.466h-.011c-.8 0-1.45.647-1.457 1.449l-.143 18.706a1.459 1.459 0 0 0 1.445 1.47h.11c5.771 0 7.324-3.594 7.339-5.494l.08-10.521c.001-.154-.017-1.538-1-2.914-.868-1.214-2.677-2.667-6.363-2.696zm4.369 16.082c-.018.384-.255 2.104-3.055 2.53l.12-15.575c2.79.468 3.003 2.187 3.015 2.55l-.08 10.495zM14.689 20.785h-.109c-5.771 0-7.324 3.594-7.338 5.495L7.16 36.801c-.001.154.017 1.538 1 2.914.869 1.213 2.677 2.666 6.363 2.695h.011c.8 0 1.45-.646 1.457-1.449l.144-18.705a1.462 1.462 0 0 0-1.447-1.471zM13.09 39.373c-2.79-.467-3.003-2.186-3.015-2.549l.08-10.495c.018-.383.256-2.104 3.055-2.53l-.12 15.574z"/></svg></svg>