<svg width="39" height="36" xmlns="http://www.w3.org/2000/svg" xmlns:xlink="http://www.w3.org/1999/xlink" xmlns:svgjs="http://svgjs.com/svgjs" viewBox="0 0.435 39 35.131" fill="#89ceb1"><svg xmlns="http://www.w3.org/2000/svg" width="39" height="36" viewBox="2.172 1.4 37.856 34.1"><path paint-order="stroke fill markers" fill-rule="evenodd" d="M39.058 7.97C37.275 3.978 33.49 1.4 29.417 1.4c-4.128 0-6.78 1.835-8.317 3.793C19.562 3.235 16.912 1.4 12.784 1.4c-4.075 0-7.86 2.579-9.642 6.57-1.842 4.124-1.03 8.717 2.173 12.284 7.755 8.64 14.607 14.763 14.675 14.824a1.666 1.666 0 0 0 2.22 0c.068-.061 6.92-6.185 14.675-14.824 3.203-3.567 4.015-8.16 2.173-12.285zm-4.656 10.058A215.044 215.044 0 0 1 21.1 31.575 215.014 215.014 0 0 1 7.798 18.028c-2.333-2.598-2.92-5.769-1.61-8.7 1.228-2.749 3.878-4.595 6.596-4.595 5.374 0 6.58 3.992 6.696 4.433a1.668 1.668 0 0 0 3.24 0c.044-.18 1.15-4.433 6.697-4.433 2.717 0 5.368 1.846 6.595 4.595 1.31 2.931.723 6.102-1.61 8.7zM29.4 6.55a1.666 1.666 0 0 0-.45 3.302c.087.012 2.14.325 2.335 3.258a1.667 1.667 0 0 0 3.328-.221c-.299-4.493-3.54-6.111-5.213-6.339zm1.53 8.836c-.438 0-.868.18-1.18.488a1.676 1.676 0 0 0-.488 1.179c0 .437.179.866.487 1.178.313.308.743.488 1.18.488.438 0 .867-.18 1.18-.488.309-.312.488-.741.488-1.178 0-.442-.18-.872-.488-1.18a1.694 1.694 0 0 0-1.18-.487z"/></svg></svg>