<svg width="44" height="32" xmlns="http://www.w3.org/2000/svg" xmlns:xlink="http://www.w3.org/1999/xlink" xmlns:svgjs="http://svgjs.com/svgjs" viewBox="0 0.091 44 31.818" fill="#7ad7df"><svg xmlns="http://www.w3.org/2000/svg" width="44" height="32" viewBox="1.3 1.6 41.9 30.3"><path paint-order="stroke fill markers" fill-rule="evenodd" d="M17.546 20.87c5.308 0 9.626-4.323 9.626-9.635 0-5.313-4.318-9.635-9.626-9.635-5.307 0-9.625 4.322-9.625 9.635 0 5.312 4.318 9.634 9.625 9.634zm0-15.935c3.47 0 6.294 2.826 6.294 6.3 0 3.473-2.823 6.299-6.294 6.299-3.47 0-6.293-2.826-6.293-6.3 0-3.473 2.823-6.299 6.293-6.299zm4.41 16.293a1.661 1.661 0 0 0-1.58.316l-2.83 2.396-2.828-2.396a1.663 1.663 0 0 0-1.58-.316C10.36 22.109 1.3 25.367 1.3 30.232c0 .921.746 1.668 1.666 1.668h29.161c.92 0 1.666-.747 1.666-1.668 0-4.865-9.06-8.123-11.837-9.004zM5.781 28.564c1.584-1.34 4.575-2.844 7.5-3.868l3.19 2.701a1.665 1.665 0 0 0 2.151 0l3.19-2.701c2.925 1.024 5.916 2.527 7.5 3.868H5.782zm31.794-7.446a1.25 1.25 0 0 0-1.673.565 1.253 1.253 0 0 0 .562 1.676c1.02.509 2.838 1.682 3.724 2.873h-4.441a1.25 1.25 0 0 0 0 2.502h6.204c.69 0 1.25-.56 1.25-1.25 0-3.476-5.05-6.08-5.626-6.366zm-6.193-2.133a3.8 3.8 0 0 1-2.706-1.122 1.25 1.25 0 1 0-1.768 1.769 6.282 6.282 0 0 0 4.474 1.855c3.49 0 6.327-2.842 6.327-6.335 0-3.492-2.838-6.333-6.327-6.333-.852 0-1.68.168-2.462.499a1.25 1.25 0 0 0 .972 2.304 3.834 3.834 0 0 1 5.319 3.53 3.835 3.835 0 0 1-3.829 3.833z"/></svg></svg>