<svg width="50" height="60" version="1.1" xmlns="http://www.w3.org/2000/svg"><path fill="rgb(0,0,0)" stroke="rgb(0,0,0)" stroke-width="1" opacity="0" d="M 0 0 L 50 0 L 50 60 L 0 60 L 0 0 Z M 12 14 L 10 15 Q 5 16 6 24 Q 7 27 12 26 L 19 18 Q 18 13 12 14 Z M 20 20 L 12 28 L 12 30 L 32 49 L 34 49 L 41 42 L 41 40 L 22 20 L 20 20 Z M 41 45 Q 36 46 37 51 L 44 52 L 43 47 Q 44 44 41 45 Z "></path><path fill="rgb(197,202,208)" stroke="rgb(197,202,208)" stroke-width="1" opacity="0.9254901960784314" d="M 10.5 15 L 8 18.5 L 7.5 20 L 7 18.5 L 10.5 15 Z "></path><path fill="rgb(197,202,208)" stroke="rgb(197,202,208)" stroke-width="1" opacity="0.9254901960784314" d="M 15.5 15 L 18 18.5 L 9.5 26 L 7 22.5 L 8 22.5 L 9.5 25 L 17 18.5 L 15.5 15 Z "></path><path fill="rgb(197,202,208)" stroke="rgb(197,202,208)" stroke-width="1" opacity="0.9254901960784314" d="M 19.5 21 L 13 28.5 L 32.5 48 L 40 40.5 L 21.5 21 L 41 40.5 L 32.5 49 L 12 28.5 L 19.5 21 Z "></path><path fill="rgb(197,202,208)" stroke="rgb(197,202,208)" stroke-width="1" opacity="0.9254901960784314" d="M 40.5 46 L 38.5 49 L 40.5 46 Z "></path><path fill="rgb(197,202,208)" stroke="rgb(197,202,208)" stroke-width="1" opacity="0.9254901960784314" d="M 42.5 46 L 43 49.5 L 42 49.5 L 42.5 46 Z "></path><path fill="rgb(198,203,209)" stroke="rgb(198,203,209)" stroke-width="1" opacity="1" d="M 11.5 15 Q 16.3 14.3 17 17.5 L 10.5 25 L 8 23.5 L 7 20.5 L 11.5 15 Z "></path><path fill="rgb(198,203,209)" stroke="rgb(198,203,209)" stroke-width="1" opacity="1" d="M 20.5 21 L 40 40.5 L 32.5 48 L 13 28.5 L 20.5 21 Z "></path><path fill="rgb(198,203,209)" stroke="rgb(198,203,209)" stroke-width="1" opacity="1" d="M 41.5 46 L 43 50.5 L 40.5 51 L 38 49.5 L 41.5 46 Z "></path><path fill="rgb(191,197,202)" stroke="rgb(191,197,202)" stroke-width="1" opacity="0.35294117647058826" d="M 11.5 14 L 15 14.5 L 11.5 15 L 11.5 14 Z "></path><path fill="rgb(191,197,202)" stroke="rgb(191,197,202)" stroke-width="1" opacity="0.35294117647058826" d="M 9.5 15 L 7 18.5 Q 5.8 24.3 9 25.5 L 6 23.5 Q 4.8 16.3 9.5 15 Z "></path><path fill="rgb(191,197,202)" stroke="rgb(191,197,202)" stroke-width="1" opacity="0.35294117647058826" d="M 16.5 15 L 19 18.5 L 11 25.5 L 18 17.5 L 16.5 15 Z "></path><path fill="rgb(191,197,202)" stroke="rgb(191,197,202)" stroke-width="1" opacity="0.35294117647058826" d="M 19.5 20 L 21.5 20 L 41 39.5 L 21.5 21 L 19.5 21 L 12.5 28 L 19.5 20 Z "></path><path fill="rgb(191,197,202)" stroke="rgb(191,197,202)" stroke-width="1" opacity="0.35294117647058826" d="M 12.5 29 L 31.5 49 L 12.5 29 Z "></path><path fill="rgb(191,197,202)" stroke="rgb(191,197,202)" stroke-width="1" opacity="0.35294117647058826" d="M 40.5 41 L 33.5 49 L 40.5 41 Z "></path><path fill="rgb(191,197,202)" stroke="rgb(191,197,202)" stroke-width="1" opacity="0.35294117647058826" d="M 40.5 45 L 43 45.5 L 38 48.5 L 37.5 51 L 37 48.5 L 40.5 45 Z "></path><path fill="rgb(191,197,202)" stroke="rgb(191,197,202)" stroke-width="1" opacity="0.35294117647058826" d="M 43.5 47 L 44 52 L 41 51.5 L 43 51 L 43.5 47 Z "></path></svg>